HIERARCHY
ROOT hip
{
  OFFSET -0.159091 90.5703 0.535219
  CHANNELS 6 Xposition Yposition Zposition Zrotation Xrotation Yrotation
  JOINT abdomen
  {
    OFFSET 0 7.2397 0
    CHANNELS 6 Xposition Yposition Zposition Zrotation Xrotation Yrotation
    JOINT chest
    {
      OFFSET 0 16.546 0
      CHANNELS 6 Xposition Yposition Zposition Zrotation Xrotation Yrotation
      JOINT neck
      {
        OFFSET 0 34.2149 0
        CHANNELS 6 Xposition Yposition Zposition Zrotation Xrotation Yrotation
        JOINT head
        {
          OFFSET 0 6.2923 0
          CHANNELS 6 Xposition Yposition Zposition Zrotation Xrotation Yrotation
          End Site
          {
            OFFSET 0 21.2161 0
          }
        }
      }
      JOINT lCollar
      {
        OFFSET 4.0639 26.6115 -1.1234
        CHANNELS 6 Xposition Yposition Zposition Zrotation Xrotation Yrotation
        JOINT lShldr
        {
          OFFSET 14.1772 0 0
          CHANNELS 6 Xposition Yposition Zposition Zrotation Xrotation Yrotation
          JOINT lForeArm
          {
            OFFSET 26.1234 0 0
            CHANNELS 6 Xposition Yposition Zposition Zrotation Xrotation Yrotation
            JOINT lHand
            {
              OFFSET 27.7188 0 0
              CHANNELS 6 Xposition Yposition Zposition Zrotation Xrotation Yrotation
              JOINT lThumb1
              {
                OFFSET 2.2979 -0.4685 1.8313
                CHANNELS 6 Xposition Yposition Zposition Zrotation Xrotation Yrotation
                JOINT lThumb2
                {
                  OFFSET 5.2953 0 0
                  CHANNELS 6 Xposition Yposition Zposition Zrotation Xrotation Yrotation
                  JOINT lThumb3
                  {
                    OFFSET 3.0181 0 0
                    CHANNELS 6 Xposition Yposition Zposition Zrotation Xrotation Yrotation
                    End Site
                    {
                      OFFSET 2.6294 0 0
                    }
                  }
                }
              }
              JOINT lIndex1
              {
                OFFSET 9.3793 0.2991 2.5924
                CHANNELS 6 Xposition Yposition Zposition Zrotation Xrotation Yrotation
                JOINT lIndex2
                {
                  OFFSET 4.3461 0 0
                  CHANNELS 6 Xposition Yposition Zposition Zrotation Xrotation Yrotation
                  JOINT lIndex3
                  {
                    OFFSET 2.1666 0 0
                    CHANNELS 6 Xposition Yposition Zposition Zrotation Xrotation Yrotation
                    End Site
                    {
                      OFFSET 2.2048 0 0
                    }
                  }
                }
              }
              JOINT lMid1
              {
                OFFSET 9.4769 0.8376 0.2947
                CHANNELS 6 Xposition Yposition Zposition Zrotation Xrotation Yrotation
                JOINT lMid2
                {
                  OFFSET 4.772 0 0
                  CHANNELS 6 Xposition Yposition Zposition Zrotation Xrotation Yrotation
                  JOINT lMid3
                  {
                    OFFSET 2.8722 0 0
                    CHANNELS 6 Xposition Yposition Zposition Zrotation Xrotation Yrotation
                    End Site
                    {
                      OFFSET 2.0959 0 0
                    }
                  }
                }
              }
              JOINT lRing1
              {
                OFFSET 8.6586 1.0176 -1.7016
                CHANNELS 6 Xposition Yposition Zposition Zrotation Xrotation Yrotation
                JOINT lRing2
                {
                  OFFSET 4.5461 0 0
                  CHANNELS 6 Xposition Yposition Zposition Zrotation Xrotation Yrotation
                  JOINT lRing3
                  {
                    OFFSET 2.506 0 0
                    CHANNELS 6 Xposition Yposition Zposition Zrotation Xrotation Yrotation
                    End Site
                    {
                      OFFSET 2.2023 0 0
                    }
                  }
                }
              }
              JOINT lPinky1
              {
                OFFSET 7.6901 0.6618 -3.9096
                CHANNELS 6 Xposition Yposition Zposition Zrotation Xrotation Yrotation
                JOINT lPinky2
                {
                  OFFSET 3.2119 0 0
                  CHANNELS 6 Xposition Yposition Zposition Zrotation Xrotation Yrotation
                  JOINT lPinky3
                  {
                    OFFSET 1.924 0 0
                    CHANNELS 6 Xposition Yposition Zposition Zrotation Xrotation Yrotation
                    End Site
                    {
                      OFFSET 1.7829 0 0
                    }
                  }
                }
              }
            }
          }
        }
      }
      JOINT rCollar
      {
        OFFSET -4.0677 26.6109 -1.1234
        CHANNELS 6 Xposition Yposition Zposition Zrotation Xrotation Yrotation
        JOINT rShldr
        {
          OFFSET -14.1772 0 0
          CHANNELS 6 Xposition Yposition Zposition Zrotation Xrotation Yrotation
          JOINT rForeArm
          {
            OFFSET -26.1234 0 0
            CHANNELS 6 Xposition Yposition Zposition Zrotation Xrotation Yrotation
            JOINT rHand
            {
              OFFSET -27.7188 0 0
              CHANNELS 6 Xposition Yposition Zposition Zrotation Xrotation Yrotation
              JOINT rThumb1
              {
                OFFSET -2.2979 -0.4684 1.8313
                CHANNELS 6 Xposition Yposition Zposition Zrotation Xrotation Yrotation
                JOINT rThumb2
                {
                  OFFSET -5.2953 0 0
                  CHANNELS 6 Xposition Yposition Zposition Zrotation Xrotation Yrotation
                  JOINT rThumb3
                  {
                    OFFSET -3.0181 0 0
                    CHANNELS 6 Xposition Yposition Zposition Zrotation Xrotation Yrotation
                    End Site
                    {
                      OFFSET -2.6294 0 0
                    }
                  }
                }
              }
              JOINT rIndex1
              {
                OFFSET -9.3793 0.2991 2.5924
                CHANNELS 6 Xposition Yposition Zposition Zrotation Xrotation Yrotation
                JOINT rIndex2
                {
                  OFFSET -4.3461 0 0
                  CHANNELS 6 Xposition Yposition Zposition Zrotation Xrotation Yrotation
                  JOINT rIndex3
                  {
                    OFFSET -2.1666 0 0
                    CHANNELS 6 Xposition Yposition Zposition Zrotation Xrotation Yrotation
                    End Site
                    {
                      OFFSET -2.2048 0 0
                    }
                  }
                }
              }
              JOINT rMid1
              {
                OFFSET -9.4769 0.8376 0.2947
                CHANNELS 6 Xposition Yposition Zposition Zrotation Xrotation Yrotation
                JOINT rMid2
                {
                  OFFSET -4.772 0 0
                  CHANNELS 6 Xposition Yposition Zposition Zrotation Xrotation Yrotation
                  JOINT rMid3
                  {
                    OFFSET -2.8722 0 0
                    CHANNELS 6 Xposition Yposition Zposition Zrotation Xrotation Yrotation
                    End Site
                    {
                      OFFSET -2.0959 0 0
                    }
                  }
                }
              }
              JOINT rRing1
              {
                OFFSET -8.6586 1.0176 -1.7016
                CHANNELS 6 Xposition Yposition Zposition Zrotation Xrotation Yrotation
                JOINT rRing2
                {
                  OFFSET -4.5461 0 0
                  CHANNELS 6 Xposition Yposition Zposition Zrotation Xrotation Yrotation
                  JOINT rRing3
                  {
                    OFFSET -2.506 0 0
                    CHANNELS 6 Xposition Yposition Zposition Zrotation Xrotation Yrotation
                    End Site
                    {
                      OFFSET -2.2023 0 0
                    }
                  }
                }
              }
              JOINT rPinky1
              {
                OFFSET -7.6901 0.6618 -3.9096
                CHANNELS 6 Xposition Yposition Zposition Zrotation Xrotation Yrotation
                JOINT rPinky2
                {
                  OFFSET -3.2119 0 0
                  CHANNELS 6 Xposition Yposition Zposition Zrotation Xrotation Yrotation
                  JOINT rPinky3
                  {
                    OFFSET -1.924 0 0
                    CHANNELS 6 Xposition Yposition Zposition Zrotation Xrotation Yrotation
                    End Site
                    {
                      OFFSET -1.7829 0 0
                    }
                  }
                }
              }
            }
          }
        }
      }
    }
  }
  JOINT lThigh
  {
    OFFSET 8.7379 -0.0029 0.0005
    CHANNELS 6 Xposition Yposition Zposition Zrotation Xrotation Yrotation
    JOINT lShin
    {
      OFFSET 0 -46.6676 0
      CHANNELS 6 Xposition Yposition Zposition Zrotation Xrotation Yrotation
      JOINT lFoot
      {
        OFFSET 0 -40.1476 0
        CHANNELS 6 Xposition Yposition Zposition Zrotation Xrotation Yrotation
        JOINT lToes
        {
          OFFSET 0 -8.8846 14.2294
          CHANNELS 6 Xposition Yposition Zposition Zrotation Xrotation Yrotation
          End Site
          {
            OFFSET 0 0 6.296
          }
        }
      }
    }
  }
  JOINT rThigh
  {
    OFFSET -8.7379 0.0029 -0.0005
    CHANNELS 6 Xposition Yposition Zposition Zrotation Xrotation Yrotation
    JOINT rShin
    {
      OFFSET 0 -46.6676 0
      CHANNELS 6 Xposition Yposition Zposition Zrotation Xrotation Yrotation
      JOINT rFoot
      {
        OFFSET 0 -40.1476 0
        CHANNELS 6 Xposition Yposition Zposition Zrotation Xrotation Yrotation
        JOINT rToes
        {
          OFFSET 0 -8.8846 14.2294
          CHANNELS 6 Xposition Yposition Zposition Zrotation Xrotation Yrotation
          End Site
          {
            OFFSET 0 0 6.296
          }
        }
      }
    }
  }
}
MOTION
Frames:	4
Frame Time:	0.0333333
-0.0197057 90.6113 1.3172 -1.87329 -5.92861 -17.7705 -5.55112e-17 7.2397 1.77636e-15 0.099016 1.63173 0.110464 1.11022e-16 16.546 1.77636e-15 0.322009 5.12228 0.212846 0 34.2149 2.22045e-16 3.22823 39.928 2.10959 1.77636e-15 6.2923 0 -9.14681 -34.1445 0.995062 4.0639 26.6115 -1.1234 -10.3296 -2.77161 -4.95562 14.1772 2.84217e-14 0 -40.8813 21.2158 -6.7547 26.1234 0 0 -0.471266 0.079157 -36.5491 27.7188 1.42109e-14 0 2.40277 10.677 -2.53181 2.2979 -0.4685 1.8313 69.4673 58.0139 -113.645 5.2953 -7.10543e-15 0 0.569371 2.91159 2.1222 3.0181 0 7.10543e-15 12.4883 -9.02112e-05 -1.16927e-05 9.3793 0.2991 2.5924 -6.25893 6.37117 -9.14608 4.3461 0 0 -10.5174 0.0875721 1.74594 2.1666 0 1.77636e-15 -2.1684 -5.87186e-06 -6.74295e-06 9.4769 0.8376 0.2947 1.87406 -2.91738 5.76075 4.772 0 -1.77636e-15 -15.9057 -0.208262 1.58321 2.8722 0 3.55271e-15 3.9574 0.0710936 0.399391 8.6586 1.0176 -1.7016 -2.3781 2.87066 9.99869 4.5461 0 -3.55271e-15 -23.977 0.828146 -1.89307 2.506 0 -3.55271e-15 6.7605 -1.6146e-06 -9.18809e-05 7.6901 0.6618 -3.9096 -3.18377 -13.8938 27.529 3.2119 0 0 -29.7304 0.536847 0.7988 1.924 -7.10543e-15 -7.10543e-15 4.41309 6.04869e-06 -3.19169e-06 -4.0677 26.6109 -1.1234 4.33098 -15.5047 11.9981 -14.1772 2.84217e-14 0 59.7676 3.05392 -10.3675 -26.1234 0 3.55271e-15 0.823805 0.989881 101.258 -27.7188 0 -1.42109e-14 -32.5369 7.71641 37.5352 -2.2979 -0.4684 1.8313 -120.031 55.4228 142.034 -5.2953 0 0 1.69385 2.89128 -2.40401 -3.0181 0 -1.42109e-14 -12.4883 -0.000102769 0.000109239 -9.3793 0.2991 2.5924 8.87911 0.678376 9.42535 -4.3461 -1.42109e-14 3.55271e-15 21.6621 -0.447032 -3.47026 -2.1666 0 0 2.16821 -5.8412e-06 5.8553e-06 -9.4769 0.8376 0.2947 27.3036 -4.71957 7.38911 -4.772 0 3.55271e-15 96.786 -6.19059 -5.07428 -2.8722 1.42109e-14 7.10543e-15 -3.95751 0.0710034 -0.399398 -8.6586 1.0176 -1.7016 32.7616 -2.56521 9.63687 -4.5461 1.42109e-14 0 86.3343 4.39814 4.2013 -2.506 1.42109e-14 0 -6.76051 5.42179e-06 3.19695e-06 -7.6901 0.6618 -3.9096 37.0947 -7.36773 4.12244 -3.2119 0 3.55271e-15 47.4332 3.69323 -1.20902 -1.924 0 0 -4.41299 -2.07802e-06 -4.87711e-06 8.7379 -0.0029 0.0005 12.7492 -8.34829 12.7524 0 -46.6676 0 4.26801 40.518 -1.45294 3.55271e-15 -40.1476 2.22045e-15 -10.6235 -23.3852 12.007 3.55271e-15 -8.8846 14.2294 0.0001 0 -1.59028e-15 -8.7379 0.0029 -0.0005 -12.3912 -11.2143 -10.4968 3.55271e-15 -46.6676 0 -4.43394 41.5166 1.48581 7.10543e-15 -40.1476 8.88178e-16 14.4303 -22.5435 -6.87478 0 -8.8846 14.2294 1.98785e-16 -1.98785e-16 -1.27222e-14 
-0.0229438 90.6159 1.32206 -1.87026 -5.92516 -17.7702 0 7.2397 1.77636e-15 0.0986965 1.63169 0.110502 1.11022e-16 16.546 0 0.322004 5.1222 0.212839 0 34.2149 0 3.22824 39.9281 2.10959 0 6.2923 0 -9.14681 -34.1445 0.995066 4.0639 26.6115 -1.1234 -10.3296 -2.77149 -4.9556 14.1772 -2.84217e-14 1.77636e-15 -40.8905 21.1878 -6.76217 26.1234 0 3.55271e-15 -0.471001 0.0789883 -36.5247 27.7188 1.42109e-14 0 2.40471 10.6843 -2.55803 2.2979 -0.4685 1.8313 69.4673 58.0139 -113.645 5.2953 0 0 0.569348 2.91158 2.12223 3.0181 7.10543e-15 -7.10543e-15 12.4883 -9.02112e-05 -1.16927e-05 9.3793 0.2991 2.5924 -6.25894 6.37118 -9.14612 4.3461 0 0 -10.5174 0.0875572 1.74597 2.1666 -1.42109e-14 8.88178e-16 -2.1684 -5.87186e-06 -6.74295e-06 9.4769 0.8376 0.2947 1.87406 -2.91738 5.76074 4.772 1.42109e-14 -3.55271e-15 -15.9057 -0.20825 1.58322 2.8722 1.42109e-14 0 3.9574 0.0710936 0.399391 8.6586 1.0176 -1.7016 -2.37811 2.87067 9.99865 4.5461 1.42109e-14 -1.77636e-15 -23.977 0.828149 -1.89309 2.506 0 -1.77636e-15 6.7605 -1.6146e-06 -9.18809e-05 7.6901 0.6618 -3.9096 -3.18377 -13.8937 27.529 3.2119 0 0 -29.7304 0.536844 0.798796 1.924 0 3.55271e-15 4.41309 6.04869e-06 -3.19169e-06 -4.0677 26.6109 -1.1234 4.29778 -15.5026 11.9842 -14.1772 0 0 59.7688 3.02053 -10.3161 -26.1234 -1.42109e-14 1.77636e-15 0.823725 0.990101 101.272 -27.7188 0 -1.42109e-14 -32.5459 7.75684 37.553 -2.2979 -0.4684 1.8313 -120.031 55.4228 142.034 -5.2953 -1.42109e-14 0 1.69387 2.89127 -2.40402 -3.0181 0 0 -12.4883 -0.000102769 0.000109239 -9.3793 0.2991 2.5924 8.87909 0.678366 9.42537 -4.3461 0 0 21.6621 -0.447034 -3.47028 -2.1666 0 -3.55271e-15 2.16821 -5.8412e-06 5.8553e-06 -9.4769 0.8376 0.2947 27.3036 -4.71957 7.38912 -4.772 1.42109e-14 3.55271e-15 96.786 -6.19059 -5.07429 -2.8722 1.42109e-14 3.55271e-15 -3.95751 0.0710034 -0.399398 -8.6586 1.0176 -1.7016 32.7616 -2.5652 9.63689 -4.5461 1.42109e-14 0 86.3343 4.39813 4.20129 -2.506 0 -1.06581e-14 -6.76051 5.42179e-06 3.19695e-06 -7.6901 0.6618 -3.9096 37.0947 -7.36773 4.12245 -3.2119 1.42109e-14 -3.55271e-15 47.4331 3.69323 -1.20903 -1.924 0 0 -4.41299 -2.07802e-06 -4.87711e-06 8.7379 -0.0029 0.0005 12.7468 -8.3393 12.7527 0 -46.6676 -3.55271e-15 4.26457 40.4974 -1.45096 -3.55271e-15 -40.1476 -3.9968e-15 -10.6231 -23.3775 12.0084 0 -8.8846 14.2294 0.0001 -9.93923e-17 -3.18055e-15 -8.7379 0.0029 -0.0005 -12.3892 -11.2077 -10.4921 3.55271e-15 -46.6676 -7.10543e-15 -4.43137 41.5015 1.48428 0 -40.1476 -3.55271e-15 14.4281 -22.5408 -6.88194 0 -8.8846 14.2294 -2.20695e-32 -1.98785e-16 -6.36111e-15 
-0.0314405 90.6283 1.33583 -1.86097 -5.91311 -17.7684 0 7.2397 0 0.097893 1.63169 0.110641 0 16.546 0 0.321996 5.1222 0.212834 0 34.2149 0 3.22824 39.9281 2.10959 0 6.2923 0 -9.14681 -34.1445 0.995063 4.0639 26.6115 -1.1234 -10.3296 -2.77149 -4.9556 14.1772 0 -8.88178e-16 -40.9148 21.1099 -6.77785 26.1234 -1.42109e-14 -3.55271e-15 -0.470461 0.0786017 -36.4693 27.7188 -1.42109e-14 -1.06581e-14 2.40807 10.7048 -2.62462 2.2979 -0.4685 1.8313 69.4673 58.0139 -113.645 5.2953 -7.10543e-15 0 0.569369 2.91159 2.12221 3.0181 1.42109e-14 -7.10543e-15 12.4883 -9.02112e-05 -1.16927e-05 9.3793 0.2991 2.5924 -6.25894 6.37118 -9.14611 4.3461 1.42109e-14 -1.77636e-15 -10.5174 0.0875581 1.74597 2.1666 1.42109e-14 2.66454e-15 -2.1684 -5.87186e-06 -6.74295e-06 9.4769 0.8376 0.2947 1.87406 -2.91738 5.76074 4.772 0 0 -15.9057 -0.208264 1.58322 2.8722 0 0 3.9574 0.0710936 0.399391 8.6586 1.0176 -1.7016 -2.37812 2.87067 9.99866 4.5461 0 -1.77636e-15 -23.977 0.828145 -1.89307 2.506 0 -1.77636e-15 6.7605 -1.6146e-06 -9.18809e-05 7.6901 0.6618 -3.9096 -3.18378 -13.8938 27.529 3.2119 0 7.10543e-15 -29.7304 0.536847 0.798796 1.924 -7.10543e-15 0 4.41309 6.04869e-06 -3.19169e-06 -4.0677 26.6109 -1.1234 4.21859 -15.4979 11.9512 -14.1772 0 -7.10543e-15 59.7615 2.93467 -10.191 -26.1234 1.42109e-14 1.77636e-15 0.823437 0.990908 101.32 -27.7188 1.42109e-14 1.42109e-14 -32.5721 7.86181 37.5944 -2.2979 -0.4684 1.8313 -120.031 55.4228 142.034 -5.2953 -1.42109e-14 -1.42109e-14 1.69387 2.89124 -2.404 -3.0181 1.42109e-14 -1.42109e-14 -12.4883 -0.000102769 0.000109239 -9.3793 0.2991 2.5924 8.8791 0.67838 9.42534 -4.3461 0 3.55271e-15 21.6621 -0.447036 -3.47025 -2.1666 2.84217e-14 -3.55271e-15 2.16821 -5.8412e-06 5.8553e-06 -9.4769 0.8376 0.2947 27.3036 -4.71956 7.38911 -4.772 1.42109e-14 3.55271e-15 96.786 -6.19058 -5.07428 -2.8722 0 3.55271e-15 -3.95751 0.0710034 -0.399398 -8.6586 1.0176 -1.7016 32.7616 -2.5652 9.63685 -4.5461 -1.42109e-14 -3.55271e-15 86.3343 4.39813 4.20131 -2.506 -1.42109e-14 7.10543e-15 -6.76051 5.42179e-06 3.19695e-06 -7.6901 0.6618 -3.9096 37.0947 -7.36772 4.12243 -3.2119 0 1.42109e-14 47.4332 3.69323 -1.20904 -1.924 0 3.55271e-15 -4.41299 -2.07802e-06 -4.87711e-06 8.7379 -0.0029 0.0005 12.74 -8.31766 12.754 3.55271e-15 -46.6676 -3.55271e-15 4.25528 40.4413 -1.44566 3.55271e-15 -40.1476 -2.22045e-15 -10.6219 -23.3569 12.0121 0 -8.8846 14.2294 0.0001 -1.98785e-16 3.18055e-15 -8.7379 0.0029 -0.0005 -12.3844 -11.1918 -10.4805 3.55271e-15 -46.6676 0 -4.42428 41.4599 1.48004 3.55271e-15 -40.1476 -8.88178e-16 14.4224 -22.5334 -6.90136 0 -8.8846 14.2294 -9.93923e-17 0 -0 
-0.0433833 90.6467 1.35727 -1.84492 -5.88998 -17.7642 -5.55112e-17 7.2397 0 0.0966395 1.63171 0.110857 -1.11022e-16 16.546 0 0.321976 5.12224 0.212843 -2.22045e-16 34.2149 0 3.22824 39.928 2.10959 0 6.2923 -1.42109e-14 -9.1468 -34.1445 0.995065 4.0639 26.6115 -1.1234 -10.3296 -2.77158 -4.95562 14.1772 0 8.88178e-16 -40.9496 20.9919 -6.7917 26.1234 0 0 -0.469868 0.0782202 -36.4094 27.7188 -1.42109e-14 -3.55271e-15 2.40929 10.7357 -2.71315 2.2979 -0.4685 1.8313 69.4674 58.0139 -113.645 5.2953 0 0 0.569364 2.9116 2.12221 3.0181 -7.10543e-15 -7.10543e-15 12.4883 -9.02112e-05 -1.16927e-05 9.3793 0.2991 2.5924 -6.25894 6.37118 -9.14611 4.3461 0 0 -10.5174 0.0875608 1.74597 2.1666 0 -8.88178e-16 -2.1684 -5.87186e-06 -6.74295e-06 9.4769 0.8376 0.2947 1.87404 -2.91738 5.76073 4.772 0 1.77636e-15 -15.9057 -0.208253 1.58322 2.8722 0 0 3.9574 0.0710936 0.399391 8.6586 1.0176 -1.7016 -2.37811 2.87069 9.99865 4.5461 0 3.55271e-15 -23.977 0.828155 -1.8931 2.506 0 -5.32907e-15 6.7605 -1.6146e-06 -9.18809e-05 7.6901 0.6618 -3.9096 -3.18378 -13.8937 27.529 3.2119 -1.42109e-14 3.55271e-15 -29.7304 0.536862 0.798797 1.924 0 -3.55271e-15 4.41309 6.04869e-06 -3.19169e-06 -4.0677 26.6109 -1.1234 4.12407 -15.4922 11.9117 -14.1772 0 -7.10543e-15 59.7308 2.81934 -10.0371 -26.1234 0 0 0.822968 0.992374 101.413 -27.7188 0 0 -32.6146 8.00552 37.6409 -2.2979 -0.4684 1.8313 -120.031 55.4228 142.034 -5.2953 0 0 1.69387 2.89125 -2.404 -3.0181 0 0 -12.4883 -0.000102769 0.000109239 -9.3793 0.2991 2.5924 8.8791 0.678366 9.42535 -4.3461 0 3.55271e-15 21.6621 -0.447031 -3.47028 -2.1666 1.42109e-14 -3.55271e-15 2.16821 -5.8412e-06 5.8553e-06 -9.4769 0.8376 0.2947 27.3036 -4.71957 7.3891 -4.772 0 -7.10543e-15 96.786 -6.1906 -5.07429 -2.8722 -1.42109e-14 -1.06581e-14 -3.95751 0.0710034 -0.399398 -8.6586 1.0176 -1.7016 32.7616 -2.56521 9.63686 -4.5461 0 0 86.3343 4.39814 4.2013 -2.506 2.84217e-14 0 -6.76051 5.42179e-06 3.19695e-06 -7.6901 0.6618 -3.9096 37.0947 -7.36773 4.12243 -3.2119 -1.42109e-14 3.55271e-15 47.4332 3.69323 -1.20901 -1.924 0 -1.06581e-14 -4.41299 -2.07802e-06 -4.87711e-06 8.7379 -0.0029 0.0005 12.729 -8.29126 12.7567 -3.55271e-15 -46.6676 -3.55271e-15 4.24163 40.3589 -1.43785 0 -40.1476 8.88178e-16 -10.6196 -23.3272 12.0167 3.55271e-15 -8.8846 14.2294 0.0001 2.98177e-16 -1.59028e-15 -8.7379 0.0029 -0.0005 -12.379 -11.1726 -10.4656 -3.55271e-15 -46.6676 -7.10543e-15 -4.41374 41.3979 1.47375 -3.55271e-15 -40.1476 8.88178e-16 14.415 -22.5228 -6.92997 3.55271e-15 -8.8846 14.2294 9.93923e-17 -1.98785e-16 -6.36111e-15 
